<?xml version="1.0" encoding="UTF-8"?><svg id="a" xmlns="http://www.w3.org/2000/svg" viewBox="0 0 13 12.98"><path d="M9.25,0l3.75,3.71v5.51l-3.75,3.76H3.75l-3.75-3.76V3.73L3.75,0h5.51Z" fill="#373435" fill-rule="evenodd" stroke-width="0"/><path d="M12.26,8.93l-3.3,3.33h-4.9l-3.35-3.33v-4.9L4.07.7h4.88l3.31,3.33v4.9Z" fill="#c500ff" fill-rule="evenodd" stroke-width="0"/><path d="M5.67,8.32h1.02c.35,0,.59-.06.73-.18.14-.13.21-.29.21-.49,0-.19-.07-.34-.21-.46-.14-.12-.38-.17-.73-.17h-1.01v1.31ZM5.67,5.79h.87c.31,0,.53-.05.65-.16.12-.11.18-.26.18-.47,0-.19-.06-.33-.18-.44-.12-.11-.33-.16-.64-.16h-.88v1.22ZM3.66,3.26h3.73c.62,0,1.1.16,1.43.46.33.31.5.69.5,1.14,0,.38-.12.71-.36.98-.16.18-.39.32-.7.43.47.11.8.3,1.02.57.22.27.33.61.33,1.02,0,.33-.08.64-.23.9-.16.27-.37.48-.64.64-.16.1-.42.17-.76.21-.45.06-.74.09-.89.09h-3.44V3.26Z" fill="#fff" fill-rule="evenodd" stroke-width="0"/></svg>