<?xml version="1.0" encoding="UTF-8"?><svg id="a" xmlns="http://www.w3.org/2000/svg" viewBox="0 0 14 14"><path d="M14,6.99h0c0,1.94-.68,3.6-2.04,4.96-1.36,1.36-3.01,2.04-4.94,2.04s-3.61-.68-4.97-2.04c-1.36-1.36-2.04-3.02-2.04-4.96S.68,3.41,2.04,2.04C3.41.68,5.06,0,7.01,0s3.58.68,4.94,2.04c1.36,1.36,2.04,3.01,2.04,4.95Z" fill="blue" fill-rule="evenodd" stroke-width="0"/><path d="M4.9,7.82l.88-.41.75,1.36v-4.59h1.01v4.59l.75-1.36.88.41-2.14,2.35-2.13-2.35ZM12.59,7h0c0-1.54-.54-2.85-1.61-3.92-1.08-1.09-2.4-1.63-3.94-1.63s-2.86.54-3.94,1.63c-1.08,1.07-1.61,2.38-1.61,3.92s.54,2.85,1.61,3.92c1.08,1.09,2.4,1.63,3.94,1.63s2.85-.54,3.92-1.61c1.09-1.08,1.63-2.4,1.63-3.94h0ZM13.31,7h0c0,1.74-.61,3.23-1.83,4.46-1.22,1.2-2.7,1.81-4.44,1.81s-3.24-.61-4.45-1.82c-1.21-1.21-1.82-2.7-1.82-4.45s.6-3.23,1.81-4.44c1.23-1.22,2.71-1.83,4.46-1.83s3.22.61,4.44,1.83c1.22,1.22,1.82,2.7,1.82,4.44h0Z" fill="#ff0" fill-rule="evenodd" stroke-width="0"/></svg>