<?xml version="1.0" encoding="UTF-8"?><svg id="a" xmlns="http://www.w3.org/2000/svg" viewBox="0 0 13.94 14"><path d="M.59,13.41v-7.99L7.02.59l6.33,4.82v7.99H.59Z" fill="#267300" fill-rule="evenodd" stroke="#fff" stroke-linecap="round" stroke-linejoin="round" stroke-width="1.19"/><path d="M7.13,8.99v-1.5h3.43v3.06c-.66.45-1.24.76-1.74.92-.51.16-1.1.24-1.8.24-.85,0-1.55-.14-2.09-.43-.54-.29-.96-.72-1.25-1.3-.3-.57-.44-1.24-.44-1.98,0-.79.16-1.47.48-2.05.32-.58.8-1.02,1.42-1.32.49-.23,1.14-.35,1.97-.35s1.39.07,1.78.21c.4.14.72.37.98.67.26.3.46.69.59,1.15l-2.15.38c-.09-.27-.24-.48-.45-.62-.21-.14-.48-.22-.81-.22-.49,0-.88.17-1.17.51-.29.34-.43.88-.43,1.61,0,.78.15,1.34.44,1.67.29.33.7.5,1.23.5.25,0,.49-.03.71-.11.22-.07.48-.2.77-.37v-.68h-1.49Z" fill="#fff" fill-rule="evenodd" stroke-width="0"/></svg>