<?xml version="1.0" encoding="UTF-8"?><svg id="a" xmlns="http://www.w3.org/2000/svg" viewBox="0 0 11.95 11.95"><path d="M11.43,5.98h0c0,.75-.14,1.46-.43,2.12-.28.67-.67,1.25-1.17,1.74s-1.08.88-1.74,1.17c-.67.28-1.37.43-2.12.43s-1.45-.14-2.12-.43c-.67-.28-1.24-.67-1.74-1.17s-.88-1.08-1.18-1.74c-.28-.66-.43-1.37-.43-2.12s.14-1.45.43-2.12c.29-.67.68-1.24,1.18-1.74s1.07-.88,1.74-1.18c.67-.28,1.37-.43,2.12-.43s1.45.14,2.12.43c.67.29,1.25.68,1.74,1.18s.88,1.07,1.17,1.74c.28.67.43,1.37.43,2.12Z" fill="#ffffbe" fill-rule="evenodd" stroke="#a80000" stroke-linecap="round" stroke-linejoin="round" stroke-width="1.04"/><path d="M5.4,5.91h.47c.37,0,.63-.07.78-.2.15-.12.22-.29.22-.49s-.06-.36-.19-.49c-.13-.14-.37-.2-.73-.2h-.55v1.38ZM3.48,3.27h3.18c.69,0,1.21.17,1.56.49.34.33.52.8.52,1.41s-.19,1.11-.56,1.47c-.37.35-.95.53-1.72.53h-1.05v2.3h-1.92V3.27Z" fill="#a80000" fill-rule="evenodd" stroke-width="0"/></svg>