<?xml version="1.0" encoding="UTF-8"?><svg id="a" xmlns="http://www.w3.org/2000/svg" viewBox="0 0 12 11.98"><path d="M11.85,5.99h0c0,.82-.15,1.58-.45,2.28-.31.7-.72,1.32-1.26,1.86s-1.16.95-1.87,1.26c-.71.31-1.47.45-2.27.45s-1.58-.15-2.28-.45c-.7-.31-1.32-.72-1.85-1.26-.53-.54-.94-1.16-1.25-1.86-.31-.7-.45-1.46-.45-2.28s.15-1.56.45-2.27c.31-.71.72-1.33,1.25-1.87.53-.53,1.15-.95,1.85-1.26.7-.3,1.46-.45,2.28-.45s1.56.16,2.27.45c.71.31,1.33.73,1.87,1.26.54.54.95,1.16,1.26,1.87.31.71.45,1.47.45,2.27Z" fill="#ff0" fill-rule="evenodd" stroke-width="0"/><path d="M8.93,5.99h0c0,.41-.07.79-.23,1.14-.15.35-.36.66-.63.93-.27.27-.58.47-.93.63-.36.15-.73.23-1.14.23s-.79-.07-1.14-.23c-.35-.15-.66-.36-.92-.63s-.47-.58-.62-.93c-.15-.35-.23-.73-.23-1.14s.07-.78.23-1.14c.15-.36.36-.66.62-.93.26-.26.57-.47.92-.63.35-.15.73-.23,1.14-.23s.78.08,1.14.23c.36.15.66.36.93.63.27.27.47.58.63.93.15.36.23.73.23,1.14Z" fill="#373435" fill-rule="evenodd" stroke-width="0"/><path d="M9.35,9.89h0s.09-.07.14-.12c.04-.04.09-.09.14-.13l-.28.26ZM5.55.87h0c-1.09.11-2.04.5-2.86,1.17l1.79,1.84c.29-.22.64-.36,1.06-.43V.87ZM3.9,7.53h0c-.26-.31-.41-.68-.49-1.1H.87c.08,1.11.49,2.09,1.22,2.92l1.81-1.82ZM5.55,8.53h0c-.35-.07-.72-.22-1.1-.45l-1.81,1.82c.86.73,1.83,1.12,2.91,1.2v-2.57ZM8.49,6.43h0c-.07.42-.21.78-.43,1.06l1.82,1.86c.73-.83,1.14-1.8,1.24-2.92h-2.63ZM9.35,2.06h0c-.81-.69-1.79-1.08-2.94-1.19v2.6c.4.07.76.22,1.08.48l1.86-1.89ZM6.41,11.11h0c1.14-.09,2.11-.5,2.94-1.22l-1.82-1.86c-.33.26-.7.43-1.11.5v2.57ZM11.13,5.59h0c-.1-1.13-.51-2.12-1.22-2.97l-1.86,1.89c.12.16.21.33.3.5.07.18.13.37.17.58h2.62ZM2.16,2.58h0c-.78.86-1.2,1.86-1.29,3h2.54c.03-.23.1-.44.19-.64.09-.2.21-.38.33-.55l-1.77-1.82ZM3.97,5.98h0c0,.27.05.53.16.77.1.23.25.45.43.63.18.18.4.32.64.43.24.1.5.16.78.16s.53-.06.78-.16c.24-.11.45-.25.64-.43.18-.18.32-.4.43-.63.1-.24.15-.5.15-.77s-.05-.51-.15-.76c-.11-.24-.25-.45-.43-.63-.19-.17-.4-.31-.64-.42-.25-.1-.5-.15-.78-.15s-.54.05-.78.15c-.24.11-.45.25-.64.42-.18.18-.33.39-.43.63-.11.25-.16.5-.16.76h0ZM12,5.98h0c0,1.66-.59,3.08-1.75,4.25-1.17,1.16-2.59,1.75-4.25,1.75s-3.06-.59-4.25-1.77c-1.16-1.14-1.75-2.55-1.75-4.23S.59,2.91,1.79,1.73C2.97.58,4.37,0,6,0s3.08.59,4.25,1.76c1.16,1.16,1.75,2.57,1.75,4.23h0Z" fill="#373435" fill-rule="evenodd" stroke-width="0"/></svg>