<?xml version="1.0" encoding="UTF-8"?><svg id="a" xmlns="http://www.w3.org/2000/svg" viewBox="0 0 11 11"><path d="M1.45,11h0c-.41,0-.75-.14-1.03-.41s-.41-.62-.41-1.03V1.45c0-.2.04-.38.11-.56.07-.17.17-.32.3-.46.14-.13.29-.23.46-.31.17-.08.36-.12.57-.12h8.1c.38,0,.72.14,1.03.42.28.31.42.65.42,1.03v8.1c0,.39-.14.73-.42,1.03-.3.28-.65.42-1.03.42H1.45Z" fill="blue" fill-rule="evenodd" stroke-width="0"/><path d="M4.7,4.9h.83c.09,0,.26-.03.52-.08.13-.03.23-.09.32-.2.08-.11.12-.23.12-.37,0-.21-.07-.36-.2-.47-.13-.11-.37-.17-.73-.17h-.86v1.29ZM2.74,8.67V2.33h3.26c.6,0,1.07.05,1.38.16.32.1.58.29.77.57.2.28.29.62.29,1.03,0,.35-.07.65-.23.91-.15.25-.35.46-.62.62-.17.1-.39.18-.69.25.23.08.4.16.51.23.07.05.18.16.31.33.14.17.23.3.28.39l.94,1.83h-2.21l-1.05-1.94c-.13-.25-.25-.41-.35-.49-.14-.1-.3-.14-.48-.14h-.17v2.57h-1.96Z" fill="#fff" fill-rule="evenodd" stroke-width="0"/></svg>