<?xml version="1.0" encoding="UTF-8"?><svg id="a" xmlns="http://www.w3.org/2000/svg" viewBox="0 0 11.97 11.96"><path d="M5.99.46h0c.77,0,1.49.14,2.15.43.66.29,1.25.68,1.76,1.19s.9,1.09,1.19,1.76c.29.67.43,1.39.43,2.15s-.14,1.49-.43,2.15c-.29.66-.68,1.25-1.19,1.75s-1.09.89-1.76,1.18c-.66.29-1.38.43-2.15.43s-1.47-.14-2.15-.43c-.67-.29-1.26-.68-1.76-1.18-.5-.5-.9-1.08-1.19-1.75-.28-.66-.43-1.38-.43-2.15s.15-1.47.43-2.15c.29-.67.69-1.26,1.19-1.76.51-.51,1.09-.9,1.76-1.19.67-.29,1.39-.43,2.15-.43Z" fill="#fff" fill-rule="evenodd" stroke="#005ce6" stroke-linecap="round" stroke-linejoin="round" stroke-width=".93"/><path d="M9,8.18h0c0,.8-.29,1.49-.86,2.06-.58.54-1.25.81-2.04.81s-1.5-.27-2.06-.81c-.55-.58-.83-1.26-.83-2.06,0-.67.38-1.94,1.14-3.83.3-.71.58-1.35.86-1.92.28-.56.54-1.09.79-1.59.31.56.62,1.14.93,1.75.31.6.62,1.25.95,1.97.76,1.67,1.14,2.87,1.14,3.62ZM7.91,9.45h0c.19-.23.28-.49.28-.79,0-.12-.02-.25-.07-.39-.05-.14-.12-.27-.19-.38-.09-.12-.19-.22-.3-.3-.12-.07-.23-.11-.36-.12.12.42.19.65.19.7,0,.25-.09.5-.26.76-.19.31-.37.51-.54.6-.18.08-.45.15-.81.21.17.28.44.42.81.42.48,0,.9-.24,1.25-.72h0Z" fill="#005ce6" fill-rule="evenodd" stroke-width="0"/></svg>